<mxfile host="www.draw.io" modified="2023-05-08T04:09:22.923Z" agent="Mozilla/5.0 (Windows NT 10.0; Win64; x64) AppleWebKit/537.36 (KHTML, like Gecko) Chrome/113.0.0.0 Safari/537.36" etag="4PR8pBwkLs9ylCQUYB-w" version="21.2.9" type="device">
  <diagram id="C5RBs43oDa-KdzZeNtuy" name="Page-1">
    <mxGraphModel dx="1049" dy="1667" grid="1" gridSize="10" guides="1" tooltips="1" connect="1" arrows="1" fold="1" page="1" pageScale="1" pageWidth="827" pageHeight="1169" math="0" shadow="0">
      <root>
        <mxCell id="WIyWlLk6GJQsqaUBKTNV-0" />
        <mxCell id="WIyWlLk6GJQsqaUBKTNV-1" parent="WIyWlLk6GJQsqaUBKTNV-0" />
        <mxCell id="gp-UMD_dUxPPFHrGNMUr-2" value="" style="edgeStyle=orthogonalEdgeStyle;rounded=0;orthogonalLoop=1;jettySize=auto;html=1;" edge="1" parent="WIyWlLk6GJQsqaUBKTNV-1" source="56Q6Ti4guwLSB6XdxsnC-0" target="-ehSZKwI9B30rcVdJ-T3-0">
          <mxGeometry relative="1" as="geometry" />
        </mxCell>
        <mxCell id="56Q6Ti4guwLSB6XdxsnC-0" value="&lt;b style=&quot;font-size: 40px;&quot;&gt;&lt;font face=&quot;Times New Roman&quot; style=&quot;font-size: 40px;&quot;&gt;Start&lt;/font&gt;&lt;/b&gt;" style="ellipse;whiteSpace=wrap;html=1;fontSize=40;" parent="WIyWlLk6GJQsqaUBKTNV-1" vertex="1">
          <mxGeometry x="277.5" y="18" width="165" height="60" as="geometry" />
        </mxCell>
        <mxCell id="gp-UMD_dUxPPFHrGNMUr-9" value="" style="edgeStyle=orthogonalEdgeStyle;rounded=0;orthogonalLoop=1;jettySize=auto;html=1;" edge="1" parent="WIyWlLk6GJQsqaUBKTNV-1" source="56Q6Ti4guwLSB6XdxsnC-5" target="-ehSZKwI9B30rcVdJ-T3-4">
          <mxGeometry relative="1" as="geometry" />
        </mxCell>
        <mxCell id="56Q6Ti4guwLSB6XdxsnC-5" value="&lt;font style=&quot;font-size: 40px;&quot; face=&quot;Times New Roman&quot;&gt;&lt;b style=&quot;font-size: 40px;&quot;&gt;&lt;span style=&quot;font-size: 40px;&quot;&gt;Multiply the Noisy Image Matrix (Frequency Domain) with the Transfer Function of Chebyshev LPF&lt;/span&gt;&lt;br style=&quot;font-size: 40px;&quot;&gt;&lt;font style=&quot;font-size: 40px;&quot;&gt;(H(w))&lt;sup style=&quot;font-size: 40px;&quot;&gt;2&lt;/sup&gt; = &lt;font style=&quot;font-size: 40px;&quot;&gt;1/(1+E&lt;sup style=&quot;font-size: 40px;&quot;&gt;2&lt;/sup&gt;C&lt;sub style=&quot;font-size: 40px;&quot;&gt;N&lt;/sub&gt;&lt;/font&gt;&lt;/font&gt;&lt;/b&gt;&lt;/font&gt;&lt;b style=&quot;border-color: var(--border-color); font-family: &amp;quot;Times New Roman&amp;quot;; font-size: 40px;&quot;&gt;&lt;sup style=&quot;border-color: var(--border-color); font-size: 40px;&quot;&gt;&lt;font style=&quot;font-size: 40px;&quot;&gt;2&lt;/font&gt;&lt;/sup&gt;&lt;/b&gt;&lt;font style=&quot;font-size: 40px;&quot; face=&quot;Times New Roman&quot;&gt;&lt;b style=&quot;font-size: 40px;&quot;&gt;&lt;font style=&quot;font-size: 40px;&quot;&gt;(w/wp))&lt;/font&gt;&lt;br style=&quot;font-size: 40px;&quot;&gt;&lt;/b&gt;&lt;/font&gt;" style="rounded=0;whiteSpace=wrap;html=1;fontSize=40;glass=0;strokeWidth=1;shadow=0;" parent="WIyWlLk6GJQsqaUBKTNV-1" vertex="1">
          <mxGeometry x="40" y="780" width="640" height="220" as="geometry" />
        </mxCell>
        <mxCell id="gp-UMD_dUxPPFHrGNMUr-8" value="" style="edgeStyle=orthogonalEdgeStyle;rounded=0;orthogonalLoop=1;jettySize=auto;html=1;" edge="1" parent="WIyWlLk6GJQsqaUBKTNV-1" source="56Q6Ti4guwLSB6XdxsnC-14" target="56Q6Ti4guwLSB6XdxsnC-5">
          <mxGeometry relative="1" as="geometry" />
        </mxCell>
        <mxCell id="56Q6Ti4guwLSB6XdxsnC-14" value="&lt;font face=&quot;Times New Roman&quot; style=&quot;font-size: 40px;&quot;&gt;&lt;span style=&quot;font-size: 40px;&quot;&gt;&lt;b style=&quot;font-size: 40px;&quot;&gt;Take the 2-D FFT of the Noisy Image&lt;/b&gt;&lt;/span&gt;&lt;/font&gt;" style="rounded=0;whiteSpace=wrap;html=1;fontSize=40;glass=0;strokeWidth=1;shadow=0;" parent="WIyWlLk6GJQsqaUBKTNV-1" vertex="1">
          <mxGeometry x="183.5" y="584" width="352.5" height="130" as="geometry" />
        </mxCell>
        <mxCell id="56Q6Ti4guwLSB6XdxsnC-17" value="&lt;b style=&quot;font-size: 40px;&quot;&gt;&lt;font face=&quot;Times New Roman&quot; style=&quot;font-size: 40px;&quot;&gt;End&lt;/font&gt;&lt;/b&gt;" style="ellipse;whiteSpace=wrap;html=1;fontSize=40;" parent="WIyWlLk6GJQsqaUBKTNV-1" vertex="1">
          <mxGeometry x="259.25" y="1420" width="200" height="70" as="geometry" />
        </mxCell>
        <mxCell id="56Q6Ti4guwLSB6XdxsnC-20" value="" style="edgeStyle=orthogonalEdgeStyle;rounded=0;orthogonalLoop=1;jettySize=auto;html=1;fontSize=40;" parent="WIyWlLk6GJQsqaUBKTNV-1" source="56Q6Ti4guwLSB6XdxsnC-18" target="56Q6Ti4guwLSB6XdxsnC-17" edge="1">
          <mxGeometry relative="1" as="geometry" />
        </mxCell>
        <mxCell id="56Q6Ti4guwLSB6XdxsnC-18" value="&lt;b style=&quot;font-size: 40px;&quot;&gt;&lt;font style=&quot;font-size: 40px;&quot; face=&quot;Times New Roman&quot;&gt;Display the Noisy and Filtered Images&lt;/font&gt;&lt;/b&gt;" style="shape=parallelogram;perimeter=parallelogramPerimeter;whiteSpace=wrap;html=1;fixedSize=1;fontSize=40;" parent="WIyWlLk6GJQsqaUBKTNV-1" vertex="1">
          <mxGeometry x="146.75" y="1240" width="426.5" height="120" as="geometry" />
        </mxCell>
        <mxCell id="gp-UMD_dUxPPFHrGNMUr-5" value="" style="edgeStyle=orthogonalEdgeStyle;rounded=0;orthogonalLoop=1;jettySize=auto;html=1;" edge="1" parent="WIyWlLk6GJQsqaUBKTNV-1" source="56Q6Ti4guwLSB6XdxsnC-21" target="56Q6Ti4guwLSB6XdxsnC-14">
          <mxGeometry relative="1" as="geometry" />
        </mxCell>
        <mxCell id="56Q6Ti4guwLSB6XdxsnC-21" value="&lt;b style=&quot;border-color: var(--border-color); font-size: 40px;&quot;&gt;&lt;font style=&quot;border-color: var(--border-color); font-size: 40px;&quot; face=&quot;Times New Roman&quot;&gt;&amp;nbsp;Select Filter Length&amp;nbsp; &amp;nbsp; (N=20)&lt;/font&gt;&lt;/b&gt;" style="shape=parallelogram;perimeter=parallelogramPerimeter;whiteSpace=wrap;html=1;fixedSize=1;fontSize=40;" parent="WIyWlLk6GJQsqaUBKTNV-1" vertex="1">
          <mxGeometry x="176.75" y="430" width="365" height="77.5" as="geometry" />
        </mxCell>
        <mxCell id="gp-UMD_dUxPPFHrGNMUr-3" value="" style="edgeStyle=orthogonalEdgeStyle;rounded=0;orthogonalLoop=1;jettySize=auto;html=1;" edge="1" parent="WIyWlLk6GJQsqaUBKTNV-1" source="-ehSZKwI9B30rcVdJ-T3-0" target="-ehSZKwI9B30rcVdJ-T3-1">
          <mxGeometry relative="1" as="geometry" />
        </mxCell>
        <mxCell id="-ehSZKwI9B30rcVdJ-T3-0" value="&lt;b style=&quot;border-color: var(--border-color); font-size: 40px;&quot;&gt;&lt;font style=&quot;border-color: var(--border-color); font-size: 40px;&quot; face=&quot;Times New Roman&quot;&gt;Input an Image&lt;/font&gt;&lt;/b&gt;" style="shape=parallelogram;perimeter=parallelogramPerimeter;whiteSpace=wrap;html=1;fixedSize=1;fontSize=40;" parent="WIyWlLk6GJQsqaUBKTNV-1" vertex="1">
          <mxGeometry x="200" y="130" width="320" height="67.5" as="geometry" />
        </mxCell>
        <mxCell id="gp-UMD_dUxPPFHrGNMUr-4" value="" style="edgeStyle=orthogonalEdgeStyle;rounded=0;orthogonalLoop=1;jettySize=auto;html=1;" edge="1" parent="WIyWlLk6GJQsqaUBKTNV-1" source="-ehSZKwI9B30rcVdJ-T3-1" target="56Q6Ti4guwLSB6XdxsnC-21">
          <mxGeometry relative="1" as="geometry" />
        </mxCell>
        <mxCell id="-ehSZKwI9B30rcVdJ-T3-1" value="&lt;font face=&quot;Times New Roman&quot; style=&quot;font-size: 40px;&quot;&gt;&lt;span style=&quot;font-size: 40px;&quot;&gt;&lt;b style=&quot;font-size: 40px;&quot;&gt;Add Noise to the Image (Say Gaussian Noise)&lt;/b&gt;&lt;/span&gt;&lt;/font&gt;" style="rounded=0;whiteSpace=wrap;html=1;fontSize=40;glass=0;strokeWidth=1;shadow=0;" parent="WIyWlLk6GJQsqaUBKTNV-1" vertex="1">
          <mxGeometry x="180.5" y="244" width="357.5" height="140" as="geometry" />
        </mxCell>
        <mxCell id="-ehSZKwI9B30rcVdJ-T3-5" style="edgeStyle=orthogonalEdgeStyle;rounded=0;orthogonalLoop=1;jettySize=auto;html=1;exitX=0.5;exitY=1;exitDx=0;exitDy=0;entryX=0.5;entryY=0;entryDx=0;entryDy=0;fontSize=40;" parent="WIyWlLk6GJQsqaUBKTNV-1" source="-ehSZKwI9B30rcVdJ-T3-4" target="56Q6Ti4guwLSB6XdxsnC-18" edge="1">
          <mxGeometry relative="1" as="geometry" />
        </mxCell>
        <mxCell id="-ehSZKwI9B30rcVdJ-T3-4" value="&lt;font face=&quot;Times New Roman&quot; style=&quot;font-size: 40px;&quot;&gt;&lt;span style=&quot;font-size: 40px;&quot;&gt;&lt;b style=&quot;font-size: 40px;&quot;&gt;Take the 2-D IFFT of the Filtered Image&lt;/b&gt;&lt;/span&gt;&lt;/font&gt;" style="rounded=0;whiteSpace=wrap;html=1;fontSize=40;glass=0;strokeWidth=1;shadow=0;" parent="WIyWlLk6GJQsqaUBKTNV-1" vertex="1">
          <mxGeometry x="171.44" y="1040" width="375.62" height="148.25" as="geometry" />
        </mxCell>
      </root>
    </mxGraphModel>
  </diagram>
</mxfile>
